<?xml version="1.0" encoding="UTF-8" standalone="no"?>
<!-- Created with Inkscape (http://www.inkscape.org/) -->

<svg
   width="210mm"
   height="297mm"
   viewBox="0 0 210 297"
   version="1.1"
   id="svg641"
   inkscape:version="1.2.1 (9c6d41e410, 2022-07-14)"
   sodipodi:docname="Single Digit.svg"
   xmlns:inkscape="http://www.inkscape.org/namespaces/inkscape"
   xmlns:sodipodi="http://sodipodi.sourceforge.net/DTD/sodipodi-0.dtd"
   xmlns="http://www.w3.org/2000/svg"
   xmlns:svg="http://www.w3.org/2000/svg">
  <sodipodi:namedview
     id="namedview643"
     pagecolor="#ffffff"
     bordercolor="#000000"
     borderopacity="0.25"
     inkscape:showpageshadow="2"
     inkscape:pageopacity="0.0"
     inkscape:pagecheckerboard="0"
     inkscape:deskcolor="#d1d1d1"
     inkscape:document-units="mm"
     showgrid="false"
     inkscape:zoom="0.68567096"
     inkscape:cx="356.58503"
     inkscape:cy="506.07364"
     inkscape:window-width="1920"
     inkscape:window-height="1009"
     inkscape:window-x="-8"
     inkscape:window-y="-8"
     inkscape:window-maximized="1"
     inkscape:current-layer="layer1" />
  <defs
     id="defs638" />
  <g
     inkscape:label="Layer 1"
     inkscape:groupmode="layer"
     id="layer1">
    <g
       id="g11283"
       transform="translate(6.5,2.7609447e-5)">
      <path
         id="rect347-4"
         style="fill:none;stroke:#000000;stroke-width:0.099948;stroke-dasharray:none"
         d="m 5.571,296.94999 -5.5,-5.45 5.5,-5.45 h 28.858 l 5.5,5.45 -5.5,5.45 z"
         sodipodi:nodetypes="ccccccc" />
      <path
         id="rect347-4-1"
         style="fill:none;stroke:#000000;stroke-width:0.099948;stroke-dasharray:none"
         d="m 5.5709988,254.95002 -5.49999996,-5.45 5.49999996,-5.45 H 34.428999 l 5.5,5.45 -5.5,5.45 z"
         sodipodi:nodetypes="ccccccc" />
      <path
         id="rect347-4-4"
         style="fill:none;stroke:#000000;stroke-width:0.099948;stroke-dasharray:none"
         d="m 5.5709988,212.95002 -5.49999996,-5.45 5.49999996,-5.45 H 34.428999 l 5.5,5.45 -5.5,5.45 z"
         sodipodi:nodetypes="ccccccc" />
      <path
         id="rect347-4-4-6"
         style="fill:none;stroke:#000000;stroke-width:0.099948;stroke-dasharray:none"
         d="m 35.478974,256.07099 5.45,-5.5 5.45,5.5 v 28.858 l -5.45,5.5 -5.45,-5.5 z"
         sodipodi:nodetypes="ccccccc" />
      <path
         id="rect347-4-4-6-0"
         style="fill:none;stroke:#000000;stroke-width:0.099948;stroke-dasharray:none"
         d="m -6.450026,256.07099 5.45,-5.5 5.45,5.5 v 28.858 l -5.45,5.5 -5.45,-5.5 z"
         sodipodi:nodetypes="ccccccc" />
      <path
         id="rect347-4-4-6-7"
         style="fill:none;stroke:#000000;stroke-width:0.099948;stroke-dasharray:none"
         d="m 35.478974,214.07099 5.45,-5.5 5.45,5.5 v 28.858 l -5.45,5.5 -5.45,-5.5 z"
         sodipodi:nodetypes="ccccccc" />
      <path
         id="rect347-4-4-6-0-9"
         style="fill:none;stroke:#000000;stroke-width:0.099948;stroke-dasharray:none"
         d="m -6.450026,214.07099 5.45,-5.5 5.45,5.5 v 28.858 l -5.45,5.5 -5.45,-5.5 z"
         sodipodi:nodetypes="ccccccc" />
    </g>
  </g>
</svg>
